<svg xmlns="http://www.w3.org/2000/svg" width="435" height="435" viewBox="0 0 435 435" version="1.1"><path d="M 85.500 4.581 C 48.106 9.733, 20.239 32.436, 8.543 67.277 C 5.406 76.623, 2.997 94.915, 3.010 109.301 L 3.020 120.500 5.669 115 C 9.308 107.447, 9.636 110.585, 6.406 122.049 C 4.087 130.278, 3.681 133.894, 3.268 150.021 C 2.607 175.795, 5.136 188.642, 14.543 207.288 C 25.846 229.692, 39.191 244.999, 58.250 257.422 C 72.938 266.996, 81.175 269.969, 101.500 273.029 C 115.857 275.191, 122.915 275.404, 133.715 274.001 C 139.882 273.200, 151.672 270.131, 150.789 269.556 C 150.630 269.453, 146.900 269.710, 142.500 270.128 C 112.070 273.019, 98.681 272.238, 82.084 266.604 C 78.006 265.219, 74.324 264.299, 73.904 264.560 C 73.483 264.820, 72.850 264.567, 72.498 263.997 C 72.146 263.428, 69.528 261.789, 66.679 260.356 C 56.703 255.335, 47.873 248.620, 38.881 239.215 C 16.498 215.801, 5.811 188.963, 5.744 156 C 5.697 132.348, 11.931 111.157, 24.566 92.019 C 34.747 76.597, 49.933 61.995, 62.863 55.192 C 72.052 50.358, 74.010 50.497, 66.599 55.457 C 62.804 57.998, 58.304 61.232, 56.599 62.644 C 50.840 67.415, 36.902 83.302, 37.380 84.549 C 37.642 85.230, 36.771 86.806, 35.445 88.052 C 34.119 89.297, 32.740 91.258, 32.380 92.408 C 32.020 93.559, 30.515 96.300, 29.034 98.500 C 26.007 102.999, 22.625 111.005, 23.758 110.990 C 24.166 110.984, 25.755 108.281, 27.290 104.983 C 31.627 95.662, 43.193 79.142, 50.174 72.297 C 55.583 66.992, 68.930 57.621, 81.139 50.555 C 85.395 48.092, 105.308 42.304, 114.500 40.857 C 125.706 39.094, 148.636 40.317, 160.011 43.283 C 169.177 45.674, 183.790 51.544, 182.868 52.465 C 182.622 52.711, 178.839 51.800, 174.460 50.439 C 170.082 49.079, 162.225 47.519, 157 46.973 C 151.775 46.427, 146.075 45.716, 144.332 45.394 C 142.590 45.072, 140.358 45.260, 139.372 45.811 C 137.470 46.876, 138.358 47.062, 152.487 48.566 C 175.205 50.984, 197.592 62.553, 215.526 81.144 C 232.876 99.129, 243.826 120.291, 246.993 141.958 C 247.592 146.060, 248.251 149.584, 248.456 149.789 C 248.661 149.994, 249.880 149.648, 251.164 149.019 C 252.518 148.357, 251.714 149.479, 249.254 151.688 C 246.337 154.307, 245.272 155.911, 245.852 156.813 C 246.512 157.841, 247.328 157.610, 249.598 155.755 C 253.848 152.280, 265.978 144, 266.817 144 C 267.213 144, 270.720 142.663, 274.609 141.029 C 282.595 137.674, 290.547 135.443, 299.835 133.952 C 309.329 132.427, 328.369 132.717, 337.883 134.530 C 346.540 136.180, 357.529 139.804, 356.623 140.710 C 356.340 140.993, 352.822 140.510, 348.804 139.637 C 341.580 138.067, 316.688 136.979, 315.486 138.181 C 315.144 138.523, 319.282 139.091, 324.682 139.442 C 338.873 140.366, 346.271 141.676, 357 145.168 C 366.264 148.184, 369.055 149.592, 380.804 157.177 C 401.032 170.237, 419.436 195.433, 425.563 218.450 C 429.229 232.224, 428.156 234.906, 424.084 222.146 C 422.253 216.407, 419.910 211.058, 418.829 210.146 C 417.756 209.241, 415.332 205.575, 413.442 202 C 411.267 197.883, 406.482 191.833, 400.392 185.500 C 395.104 180, 393.507 178.532, 396.844 182.238 C 410.239 197.118, 418.153 212.611, 422.493 232.448 C 422.949 234.535, 423.378 235.007, 423.961 234.063 C 424.994 232.391, 426.616 235.198, 429.124 243 C 430.849 248.366, 430.894 246.662, 430.946 173.301 C 431.005 91.321, 430.540 82.440, 425.390 67.060 C 414.520 34.596, 389.172 12.647, 354 5.240 C 347.430 3.857, 330.932 3.632, 221 3.432 C 118.915 3.245, 93.634 3.460, 85.500 4.581 M 121.250 47.716 C 122.763 47.945, 125.237 47.945, 126.750 47.716 C 128.262 47.487, 127.025 47.300, 124 47.300 C 120.975 47.300, 119.737 47.487, 121.250 47.716 M 120 59.005 C 118.500 59.488, 120.100 59.592, 124 59.265 C 127.575 58.965, 130.688 58.558, 130.917 58.360 C 131.724 57.663, 122.469 58.209, 120 59.005 M 181 64.350 C 181 64.581, 182.180 65.543, 183.623 66.489 C 185.066 67.434, 185.941 67.713, 185.567 67.109 C 184.854 65.955, 181 63.626, 181 64.350 M 195 73.110 C 200.397 77.781, 203.089 78.624, 198 74.050 C 195.525 71.826, 193.050 70.022, 192.500 70.043 C 191.950 70.064, 193.075 71.444, 195 73.110 M 209.966 85.283 C 212.972 88.427, 215.629 91, 215.871 91 C 216.112 91, 215.538 90.147, 214.594 89.104 C 213.505 87.901, 213.284 87.072, 213.988 86.837 C 214.598 86.634, 213.726 85.153, 212.049 83.547 C 210.282 81.854, 209 81.190, 209 81.968 C 209 82.934, 208.369 82.785, 206.750 81.438 C 205.512 80.408, 206.960 82.138, 209.966 85.283 M 102.161 83.523 C 99.234 87.243, 99.418 88.485, 103.500 92.567 C 106.942 96.008, 107 96.206, 107 104.426 C 107 113.784, 106.835 114, 99.662 114 C 93.385 114, 89.273 112.479, 84.922 108.548 C 80.368 104.434, 79.221 104.252, 75.635 107.073 C 71.869 110.035, 72.262 113.244, 77.023 118.409 C 82.074 123.889, 89.449 127.139, 98.291 127.781 L 105.082 128.275 104.791 135.387 L 104.500 142.500 96.798 146.500 C 76.915 156.827, 62.855 173.867, 59.945 191.167 C 57.966 202.933, 61.439 212.590, 69.069 216.536 C 75.296 219.756, 87.985 217.412, 99.497 210.915 C 105.041 207.786, 105.327 207.835, 106.340 212.088 C 107.313 216.172, 110.844 220, 113.638 220 C 117.263 220, 119.531 218.495, 122.052 214.415 C 124.061 211.165, 124.227 209.931, 123.715 202.028 L 123.146 193.251 126.688 189.875 C 135.439 181.537, 151.847 157.630, 153.540 150.750 C 154.371 147.375, 154.781 147.365, 161.535 150.560 C 172.085 155.551, 177.756 165.993, 176.747 178.567 C 175.339 196.101, 161.758 208.756, 137 215.604 C 131.775 217.049, 126.938 218.940, 126.250 219.807 C 124.412 222.124, 124.722 224.722, 127.123 227.123 C 128.974 228.974, 129.968 229.163, 134.873 228.598 C 143.536 227.600, 158.760 223.182, 166.302 219.477 C 186.875 209.372, 196.654 194.401, 195.849 174.244 C 195.561 167.032, 194.984 164.449, 192.556 159.500 C 187.139 148.457, 174.094 138.865, 160.035 135.585 C 156.240 134.700, 153.245 133.367, 152.428 132.200 C 150.725 129.769, 145.899 127.735, 142.861 128.168 C 141.580 128.351, 139.624 129.888, 138.516 131.584 C 136.694 134.371, 135.779 134.763, 129 135.667 C 124.875 136.217, 121.341 136.546, 121.147 136.398 C 120.953 136.249, 121.098 133.921, 121.469 131.224 L 122.144 126.319 128.822 125.108 C 141.890 122.737, 158.140 116.993, 162.216 113.305 C 164.830 110.938, 164.565 105.408, 161.750 103.604 C 154.979 99.266, 147.776 99.579, 140 104.550 C 136.329 106.896, 126.189 110.522, 125.427 109.760 C 125.183 109.517, 125.707 106.112, 126.592 102.196 C 128.116 95.448, 128.103 94.875, 126.350 91.287 C 124.181 86.846, 115.740 82.063, 108.666 81.266 C 104.827 80.833, 104.070 81.096, 102.161 83.523 M 210.405 84.854 C 212.521 87.238, 213 87.456, 213 86.035 C 213 85.505, 211.988 84.539, 210.750 83.890 C 208.512 82.715, 208.510 82.720, 210.405 84.854 M 218.649 92.702 C 219.500 94.738, 222.794 99.576, 225.971 103.452 C 229.147 107.328, 232.328 111.624, 233.040 112.997 C 233.824 114.510, 234.502 114.994, 234.758 114.226 C 234.991 113.528, 233.694 110.604, 231.876 107.729 C 228.479 102.355, 218.234 89, 217.508 89 C 217.285 89, 217.798 90.666, 218.649 92.702 M 218.860 97.973 C 231.056 113.222, 236.641 126.013, 241.708 150.297 C 242.438 153.795, 242.648 153.985, 244.382 152.713 C 246.220 151.366, 246.214 151.103, 244.087 141.433 C 242.839 135.760, 241.117 130.672, 240.054 129.516 C 239.033 128.407, 236.798 124.389, 235.088 120.588 C 232.054 113.844, 220.512 97.497, 215.961 93.500 C 214.709 92.400, 216.013 94.413, 218.860 97.973 M 242.199 141 C 242.199 142.375, 242.560 144.625, 243 146 L 243.801 148.500 243.801 146 C 243.801 144.625, 243.440 142.375, 243 141 L 242.199 138.500 242.199 141 M 299 141.049 C 297.314 141.622, 298.128 141.711, 301.500 141.321 C 304.250 141.004, 306.688 140.576, 306.917 140.372 C 307.704 139.669, 301.498 140.200, 299 141.049 M 128.500 148.681 C 127.400 148.928, 125.037 149.586, 123.250 150.143 L 120 151.155 120.042 163.828 L 120.083 176.500 123.606 172.508 C 127.793 167.765, 132.066 160.485, 134.908 153.250 L 136.971 148 133.735 148.116 C 131.956 148.180, 129.600 148.434, 128.500 148.681 M 327.269 149.693 C 328.242 149.947, 329.592 149.930, 330.269 149.656 C 330.946 149.382, 330.150 149.175, 328.500 149.195 C 326.850 149.215, 326.296 149.439, 327.269 149.693 M 308.762 150.707 C 310.006 150.946, 311.806 150.937, 312.762 150.687 C 313.718 150.437, 312.700 150.241, 310.500 150.252 C 308.300 150.263, 307.518 150.468, 308.762 150.707 M 299.500 152.047 C 298.106 152.678, 298.712 152.768, 301.500 152.344 C 303.700 152.009, 305.688 151.569, 305.917 151.367 C 306.776 150.610, 301.420 151.177, 299.500 152.047 M 358.083 153.365 C 358.313 153.565, 359.625 154.265, 361 154.920 C 363.357 156.042, 363.389 156.022, 361.559 154.555 C 359.966 153.279, 356.711 152.164, 358.083 153.365 M 369 157.395 C 369 157.675, 371.137 159.354, 373.750 161.126 C 376.365 162.900, 377.743 163.483, 376.817 162.424 C 375.057 160.411, 369 156.515, 369 157.395 M 97.781 163.490 C 86.102 172.660, 78.971 184.515, 78.673 195.258 L 78.500 201.500 83.039 201.450 C 86.470 201.413, 89.035 200.501, 93.539 197.716 C 104.995 190.635, 104.092 192.663, 103.777 174.726 L 103.500 159 97.781 163.490 M 268.250 165.115 C 264.841 167.298, 263.738 168.764, 266.750 167.108 C 269.044 165.847, 272.639 163.068, 272 163.049 C 271.725 163.040, 270.038 163.970, 268.250 165.115 M 16.272 168 C 16.272 170.475, 16.467 171.488, 16.706 170.250 C 16.944 169.012, 16.944 166.988, 16.706 165.750 C 16.467 164.512, 16.272 165.525, 16.272 168 M 385.304 168.942 C 387.568 170.874, 392 172.535, 392 171.452 C 392 171.334, 390.348 169.977, 388.329 168.437 C 386.310 166.897, 384.986 166.169, 385.388 166.819 C 386.201 168.135, 384.937 168.412, 383.422 167.250 C 382.884 166.838, 383.731 167.599, 385.304 168.942 M 394.039 173.264 C 393.957 174.862, 396.695 178.712, 402.033 184.500 C 405.076 187.800, 408.526 191.849, 409.701 193.498 C 413.063 198.217, 413.341 195.847, 410.004 190.919 C 406.643 185.954, 394.100 172.083, 394.039 173.264 M 20.195 186.500 C 20.215 188.150, 20.439 188.704, 20.693 187.731 C 20.947 186.758, 20.930 185.408, 20.656 184.731 C 20.382 184.054, 20.175 184.850, 20.195 186.500 M 365.819 197.033 C 359.639 200.297, 311.843 204.480, 287.904 203.852 C 275.408 203.524, 274.183 203.314, 269.822 200.750 C 267.249 199.238, 264.056 198, 262.727 198 C 259.792 198, 257 200.861, 257 203.869 C 257 209.172, 264.455 218.729, 270.315 220.939 C 274.246 222.421, 283.389 222.261, 294.261 220.521 C 304.201 218.930, 333.315 215.552, 346.750 214.430 C 352.191 213.976, 355 214.093, 355 214.772 C 355 216.055, 342.280 227.998, 334.615 233.911 L 328.898 238.322 325.492 236.698 C 323.619 235.804, 319.097 234.553, 315.443 233.917 C 309.355 232.856, 308.577 232.925, 306.149 234.730 C 301.994 237.821, 302.253 240.389, 307.183 244.954 L 311.500 248.952 311.305 259.726 C 310.843 285.146, 299.644 306.357, 279.750 319.488 C 274.340 323.058, 273.464 324.350, 273.972 328 C 274.307 330.406, 277.135 333.001, 279.405 332.986 C 282.237 332.967, 294.887 325.974, 302.028 320.479 C 305.224 318.019, 309.924 313.643, 312.473 310.754 C 322.110 299.828, 330.034 278.619, 331.575 259.623 L 332.274 251.018 340.789 246.488 C 351.399 240.844, 358.738 235.604, 371.436 224.606 C 376.901 219.873, 381.879 216, 382.498 216 C 384.518 216, 388 211.976, 388 209.641 C 388 204.850, 376.624 194.912, 371.290 195.044 C 370.305 195.069, 367.844 195.963, 365.819 197.033 M 3.083 269.199 C 2.992 342.015, 3.548 351.844, 8.611 366.926 C 18.022 394.960, 38.584 415.564, 66.602 425.034 C 83.838 430.860, 87.359 431, 217.169 431 C 345.364 431, 349.634 430.840, 366.500 425.388 C 389.111 418.080, 408.516 402.034, 418.914 382.048 C 428.361 363.890, 431.032 348.116, 430.937 311.042 L 430.875 286.500 428.462 293.717 C 419.711 319.898, 402.339 342.771, 380.036 357.477 C 368.924 364.803, 360.881 368.687, 349.136 372.397 C 319.341 381.809, 285.341 379.167, 257.500 365.276 C 248.242 360.656, 235.700 352.247, 229.500 346.502 C 224.147 341.542, 225.096 341.461, 231.250 346.353 C 233.312 347.993, 235.238 349.095, 235.531 348.803 C 235.823 348.510, 234.909 347.515, 233.499 346.592 C 232.090 345.668, 231.152 344.563, 231.415 344.137 C 231.679 343.711, 226.743 338.225, 220.447 331.947 C 214.151 325.669, 209 320.128, 209 319.634 C 209 319.140, 208.010 317.135, 206.800 315.177 C 203.997 310.641, 196.564 292.499, 193.982 283.892 L 192 277.284 183.402 281.748 C 172.610 287.351, 161.928 291.260, 151 293.605 C 138.802 296.224, 110.643 296.236, 99.500 293.627 C 73.409 287.518, 52.390 276.271, 35 259.113 C 29.725 253.908, 28.207 252.038, 31 254.184 C 37.445 259.136, 39.202 259.906, 34.348 255.652 C 32.065 253.650, 28.272 249.647, 25.920 246.756 L 21.643 241.500 28 247.500 C 34.947 254.057, 33.631 252.166, 20.870 237.249 C 12.870 227.899, 10.507 223.664, 5.941 210.500 L 3.167 202.500 3.083 269.199 M 421.141 219 C 421.141 219.825, 421.527 221.400, 422 222.500 C 422.542 223.761, 422.859 223.945, 422.859 223 C 422.859 222.175, 422.473 220.600, 422 219.500 C 421.458 218.239, 421.141 218.055, 421.141 219 M 42 222.884 C 42 224.944, 51.432 234.230, 58.165 238.799 C 62.825 241.961, 63.443 242.225, 60.505 239.799 C 58.308 237.985, 53.245 233.158, 49.255 229.074 C 45.265 224.990, 42 222.205, 42 222.884 M 198.520 272.968 C 198.191 273.501, 199.122 277.438, 200.590 281.718 C 211.905 314.713, 241.958 344.447, 273.543 353.898 C 293.583 359.895, 325.598 359.190, 340.392 352.426 C 346.161 349.789, 345.774 349.811, 329 353.096 C 312.362 356.355, 296.688 356.667, 284 353.993 C 278.225 352.776, 272.825 351.699, 272 351.600 C 269.435 351.291, 251.433 342.393, 246.342 338.917 C 226.516 325.382, 207.733 299.857, 202.419 279.227 C 200.622 272.251, 199.789 270.914, 198.520 272.968 M 213.086 279.500 C 213.055 280.600, 213.467 282.175, 214 283 C 214.862 284.333, 214.963 284.333, 214.914 283 C 214.884 282.175, 214.473 280.600, 214 279.500 L 213.141 277.500 213.086 279.500 M 238 314.868 C 238 316.768, 245.321 323.045, 252.914 327.655 C 257.043 330.162, 259.794 331.457, 259.028 330.533 C 258.261 329.610, 256.029 328.028, 254.067 327.020 C 252.105 326.011, 247.688 322.631, 244.250 319.509 C 240.813 316.387, 238 314.298, 238 314.868 M 224.214 338.530 C 227.356 341.761, 230.185 344.148, 230.500 343.833 C 230.815 343.518, 228.244 340.874, 224.786 337.957 L 218.500 332.653 224.214 338.530" stroke="none" fill="#e03d3f" fill-rule="evenodd"/><path d="M 92 2.628 C 59.262 5.817, 34.975 19.280, 19.072 43.054 C 6.941 61.188, 2.439 78.305, 1.858 108.500 C 1.730 115.100, 1.231 121.993, 0.747 123.818 C 0.156 126.051, 0.243 127.587, 1.013 128.515 C 1.745 129.398, 1.933 131.803, 1.534 135.197 C 0.722 142.117, 0.792 182.373, 1.774 273.500 C 2.651 354.766, 2.678 355.129, 9.094 371.932 C 19.225 398.461, 41.366 418.864, 68.813 426.964 C 72.835 428.151, 76.885 428.922, 77.813 428.677 C 79.116 428.333, 79.031 428.206, 77.438 428.116 C 73.602 427.900, 57.773 422.059, 51.116 418.402 C 31.225 407.476, 16.057 389.107, 8.611 366.926 C 3.548 351.844, 2.992 342.015, 3.083 269.199 L 3.167 202.500 5.941 210.500 C 10.507 223.664, 12.870 227.899, 20.870 237.249 C 33.631 252.166, 34.947 254.057, 28 247.500 L 21.643 241.500 25.920 246.756 C 28.272 249.647, 32.065 253.650, 34.348 255.652 C 39.202 259.906, 37.445 259.136, 31 254.184 C 28.207 252.038, 29.725 253.908, 35 259.113 C 52.390 276.271, 73.409 287.518, 99.500 293.627 C 110.643 296.236, 138.802 296.224, 151 293.605 C 161.928 291.260, 172.610 287.351, 183.402 281.748 L 192 277.284 193.982 283.892 C 196.564 292.499, 203.997 310.641, 206.800 315.177 C 208.010 317.135, 209 319.140, 209 319.634 C 209 320.128, 214.151 325.669, 220.447 331.947 C 226.743 338.225, 231.679 343.711, 231.415 344.137 C 231.152 344.563, 232.090 345.668, 233.499 346.592 C 234.909 347.515, 235.823 348.510, 235.531 348.803 C 235.238 349.095, 233.312 347.993, 231.250 346.353 C 225.096 341.461, 224.147 341.542, 229.500 346.502 C 235.700 352.247, 248.242 360.656, 257.500 365.276 C 285.341 379.167, 319.341 381.809, 349.136 372.397 C 360.881 368.687, 368.924 364.803, 380.036 357.477 C 402.339 342.771, 419.711 319.898, 428.462 293.717 L 430.875 286.500 430.937 311.042 C 431.008 338.725, 429.465 354.256, 425.410 366.678 C 416.291 394.614, 395.848 415.285, 367.679 425.054 C 358.367 428.283, 358.557 429.017, 367.930 426.022 C 394.392 417.569, 415.476 397.259, 425.065 370.985 C 432.197 351.442, 432.244 350.419, 432.118 217 C 432.003 95.621, 431.733 86.096, 427.997 71.488 C 420.467 42.046, 397.832 17.713, 368.912 7.970 C 352.646 2.490, 357.609 2.675, 221.500 2.474 C 152.200 2.371, 93.925 2.441, 92 2.628 M 85.500 4.581 C 48.106 9.733, 20.239 32.436, 8.543 67.277 C 5.406 76.623, 2.997 94.915, 3.010 109.301 L 3.020 120.500 5.669 115 C 9.308 107.447, 9.636 110.585, 6.406 122.049 C 4.087 130.278, 3.681 133.894, 3.268 150.021 C 2.607 175.795, 5.136 188.642, 14.543 207.288 C 25.846 229.692, 39.191 244.999, 58.250 257.422 C 72.938 266.996, 81.175 269.969, 101.500 273.029 C 115.857 275.191, 122.915 275.404, 133.715 274.001 C 139.882 273.200, 151.672 270.131, 150.789 269.556 C 150.630 269.453, 146.900 269.710, 142.500 270.128 C 112.070 273.019, 98.681 272.238, 82.084 266.604 C 78.006 265.219, 74.324 264.299, 73.904 264.560 C 73.483 264.820, 72.850 264.567, 72.498 263.997 C 72.146 263.428, 69.528 261.789, 66.679 260.356 C 56.703 255.335, 47.873 248.620, 38.881 239.215 C 16.498 215.801, 5.811 188.963, 5.744 156 C 5.697 132.348, 11.931 111.157, 24.566 92.019 C 34.747 76.597, 49.933 61.995, 62.863 55.192 C 72.052 50.358, 74.010 50.497, 66.599 55.457 C 62.804 57.998, 58.304 61.232, 56.599 62.644 C 50.840 67.415, 36.902 83.302, 37.380 84.549 C 37.642 85.230, 36.771 86.806, 35.445 88.052 C 34.119 89.297, 32.740 91.258, 32.380 92.408 C 32.020 93.559, 30.515 96.300, 29.034 98.500 C 26.007 102.999, 22.625 111.005, 23.758 110.990 C 24.166 110.984, 25.755 108.281, 27.290 104.983 C 31.627 95.662, 43.193 79.142, 50.174 72.297 C 55.583 66.992, 68.930 57.621, 81.139 50.555 C 85.395 48.092, 105.308 42.304, 114.500 40.857 C 125.706 39.094, 148.636 40.317, 160.011 43.283 C 169.177 45.674, 183.790 51.544, 182.868 52.465 C 182.622 52.711, 178.839 51.800, 174.460 50.439 C 170.082 49.079, 162.225 47.519, 157 46.973 C 151.775 46.427, 146.075 45.716, 144.332 45.394 C 142.590 45.072, 140.358 45.260, 139.372 45.811 C 137.470 46.876, 138.358 47.062, 152.487 48.566 C 175.205 50.984, 197.592 62.553, 215.526 81.144 C 232.876 99.129, 243.826 120.291, 246.993 141.958 C 247.592 146.060, 248.251 149.584, 248.456 149.789 C 248.661 149.994, 249.880 149.648, 251.164 149.019 C 252.518 148.357, 251.714 149.479, 249.254 151.688 C 246.337 154.307, 245.272 155.911, 245.852 156.813 C 246.512 157.841, 247.328 157.610, 249.598 155.755 C 253.848 152.280, 265.978 144, 266.817 144 C 267.213 144, 270.720 142.663, 274.609 141.029 C 282.595 137.674, 290.547 135.443, 299.835 133.952 C 309.329 132.427, 328.369 132.717, 337.883 134.530 C 346.540 136.180, 357.529 139.804, 356.623 140.710 C 356.340 140.993, 352.822 140.510, 348.804 139.637 C 341.580 138.067, 316.688 136.979, 315.486 138.181 C 315.144 138.523, 319.282 139.091, 324.682 139.442 C 338.873 140.366, 346.271 141.676, 357 145.168 C 366.264 148.184, 369.055 149.592, 380.804 157.177 C 401.032 170.237, 419.436 195.433, 425.563 218.450 C 429.229 232.224, 428.156 234.906, 424.084 222.146 C 422.253 216.407, 419.910 211.058, 418.829 210.146 C 417.756 209.241, 415.332 205.575, 413.442 202 C 411.267 197.883, 406.482 191.833, 400.392 185.500 C 395.104 180, 393.507 178.532, 396.844 182.238 C 410.239 197.118, 418.153 212.611, 422.493 232.448 C 422.949 234.535, 423.378 235.007, 423.961 234.063 C 424.994 232.391, 426.616 235.198, 429.124 243 C 430.849 248.366, 430.894 246.662, 430.946 173.301 C 431.005 91.321, 430.540 82.440, 425.390 67.060 C 414.520 34.596, 389.172 12.647, 354 5.240 C 347.430 3.857, 330.932 3.632, 221 3.432 C 118.915 3.245, 93.634 3.460, 85.500 4.581 M 121.250 47.716 C 122.763 47.945, 125.237 47.945, 126.750 47.716 C 128.262 47.487, 127.025 47.300, 124 47.300 C 120.975 47.300, 119.737 47.487, 121.250 47.716 M 120 59.005 C 118.500 59.488, 120.100 59.592, 124 59.265 C 127.575 58.965, 130.688 58.558, 130.917 58.360 C 131.724 57.663, 122.469 58.209, 120 59.005 M 181 64.350 C 181 64.581, 182.180 65.543, 183.623 66.489 C 185.066 67.434, 185.941 67.713, 185.567 67.109 C 184.854 65.955, 181 63.626, 181 64.350 M 195 73.110 C 200.397 77.781, 203.089 78.624, 198 74.050 C 195.525 71.826, 193.050 70.022, 192.500 70.043 C 191.950 70.064, 193.075 71.444, 195 73.110 M 209.966 85.283 C 212.972 88.427, 215.629 91, 215.871 91 C 216.112 91, 215.538 90.147, 214.594 89.104 C 213.505 87.901, 213.284 87.072, 213.988 86.837 C 214.598 86.634, 213.726 85.153, 212.049 83.547 C 210.282 81.854, 209 81.190, 209 81.968 C 209 82.934, 208.369 82.785, 206.750 81.438 C 205.512 80.408, 206.960 82.138, 209.966 85.283 M 102.161 83.523 C 99.234 87.243, 99.418 88.485, 103.500 92.567 C 106.942 96.008, 107 96.206, 107 104.426 C 107 113.784, 106.835 114, 99.662 114 C 93.385 114, 89.273 112.479, 84.922 108.548 C 80.368 104.434, 79.221 104.252, 75.635 107.073 C 71.869 110.035, 72.262 113.244, 77.023 118.409 C 82.074 123.889, 89.449 127.139, 98.291 127.781 L 105.082 128.275 104.791 135.387 L 104.500 142.500 96.798 146.500 C 76.915 156.827, 62.855 173.867, 59.945 191.167 C 57.966 202.933, 61.439 212.590, 69.069 216.536 C 75.296 219.756, 87.985 217.412, 99.497 210.915 C 105.041 207.786, 105.327 207.835, 106.340 212.088 C 107.313 216.172, 110.844 220, 113.638 220 C 117.263 220, 119.531 218.495, 122.052 214.415 C 124.061 211.165, 124.227 209.931, 123.715 202.028 L 123.146 193.251 126.688 189.875 C 135.439 181.537, 151.847 157.630, 153.540 150.750 C 154.371 147.375, 154.781 147.365, 161.535 150.560 C 172.085 155.551, 177.756 165.993, 176.747 178.567 C 175.339 196.101, 161.758 208.756, 137 215.604 C 131.775 217.049, 126.938 218.940, 126.250 219.807 C 124.412 222.124, 124.722 224.722, 127.123 227.123 C 128.974 228.974, 129.968 229.163, 134.873 228.598 C 143.536 227.600, 158.760 223.182, 166.302 219.477 C 186.875 209.372, 196.654 194.401, 195.849 174.244 C 195.561 167.032, 194.984 164.449, 192.556 159.500 C 187.139 148.457, 174.094 138.865, 160.035 135.585 C 156.240 134.700, 153.245 133.367, 152.428 132.200 C 150.725 129.769, 145.899 127.735, 142.861 128.168 C 141.580 128.351, 139.624 129.888, 138.516 131.584 C 136.694 134.371, 135.779 134.763, 129 135.667 C 124.875 136.217, 121.341 136.546, 121.147 136.398 C 120.953 136.249, 121.098 133.921, 121.469 131.224 L 122.144 126.319 128.822 125.108 C 141.890 122.737, 158.140 116.993, 162.216 113.305 C 164.830 110.938, 164.565 105.408, 161.750 103.604 C 154.979 99.266, 147.776 99.579, 140 104.550 C 136.329 106.896, 126.189 110.522, 125.427 109.760 C 125.183 109.517, 125.707 106.112, 126.592 102.196 C 128.116 95.448, 128.103 94.875, 126.350 91.287 C 124.181 86.846, 115.740 82.063, 108.666 81.266 C 104.827 80.833, 104.070 81.096, 102.161 83.523 M 210.405 84.854 C 212.521 87.238, 213 87.456, 213 86.035 C 213 85.505, 211.988 84.539, 210.750 83.890 C 208.512 82.715, 208.510 82.720, 210.405 84.854 M 218.649 92.702 C 219.500 94.738, 222.794 99.576, 225.971 103.452 C 229.147 107.328, 232.328 111.624, 233.040 112.997 C 233.824 114.510, 234.502 114.994, 234.758 114.226 C 234.991 113.528, 233.694 110.604, 231.876 107.729 C 228.479 102.355, 218.234 89, 217.508 89 C 217.285 89, 217.798 90.666, 218.649 92.702 M 218.860 97.973 C 231.056 113.222, 236.641 126.013, 241.708 150.297 C 242.438 153.795, 242.648 153.985, 244.382 152.713 C 246.220 151.366, 246.214 151.103, 244.087 141.433 C 242.839 135.760, 241.117 130.672, 240.054 129.516 C 239.033 128.407, 236.798 124.389, 235.088 120.588 C 232.054 113.844, 220.512 97.497, 215.961 93.500 C 214.709 92.400, 216.013 94.413, 218.860 97.973 M 242.199 141 C 242.199 142.375, 242.560 144.625, 243 146 L 243.801 148.500 243.801 146 C 243.801 144.625, 243.440 142.375, 243 141 L 242.199 138.500 242.199 141 M 299 141.049 C 297.314 141.622, 298.128 141.711, 301.500 141.321 C 304.250 141.004, 306.688 140.576, 306.917 140.372 C 307.704 139.669, 301.498 140.200, 299 141.049 M 128.500 148.681 C 127.400 148.928, 125.037 149.586, 123.250 150.143 L 120 151.155 120.042 163.828 L 120.083 176.500 123.606 172.508 C 127.793 167.765, 132.066 160.485, 134.908 153.250 L 136.971 148 133.735 148.116 C 131.956 148.180, 129.600 148.434, 128.500 148.681 M 327.269 149.693 C 328.242 149.947, 329.592 149.930, 330.269 149.656 C 330.946 149.382, 330.150 149.175, 328.500 149.195 C 326.850 149.215, 326.296 149.439, 327.269 149.693 M 308.762 150.707 C 310.006 150.946, 311.806 150.937, 312.762 150.687 C 313.718 150.437, 312.700 150.241, 310.500 150.252 C 308.300 150.263, 307.518 150.468, 308.762 150.707 M 299.500 152.047 C 298.106 152.678, 298.712 152.768, 301.500 152.344 C 303.700 152.009, 305.688 151.569, 305.917 151.367 C 306.776 150.610, 301.420 151.177, 299.500 152.047 M 358.083 153.365 C 358.313 153.565, 359.625 154.265, 361 154.920 C 363.357 156.042, 363.389 156.022, 361.559 154.555 C 359.966 153.279, 356.711 152.164, 358.083 153.365 M 369 157.395 C 369 157.675, 371.137 159.354, 373.750 161.126 C 376.365 162.900, 377.743 163.483, 376.817 162.424 C 375.057 160.411, 369 156.515, 369 157.395 M 97.781 163.490 C 86.102 172.660, 78.971 184.515, 78.673 195.258 L 78.500 201.500 83.039 201.450 C 86.470 201.413, 89.035 200.501, 93.539 197.716 C 104.995 190.635, 104.092 192.663, 103.777 174.726 L 103.500 159 97.781 163.490 M 268.250 165.115 C 264.841 167.298, 263.738 168.764, 266.750 167.108 C 269.044 165.847, 272.639 163.068, 272 163.049 C 271.725 163.040, 270.038 163.970, 268.250 165.115 M 16.272 168 C 16.272 170.475, 16.467 171.488, 16.706 170.250 C 16.944 169.012, 16.944 166.988, 16.706 165.750 C 16.467 164.512, 16.272 165.525, 16.272 168 M 385.304 168.942 C 387.568 170.874, 392 172.535, 392 171.452 C 392 171.334, 390.348 169.977, 388.329 168.437 C 386.310 166.897, 384.986 166.169, 385.388 166.819 C 386.201 168.135, 384.937 168.412, 383.422 167.250 C 382.884 166.838, 383.731 167.599, 385.304 168.942 M 394.039 173.264 C 393.957 174.862, 396.695 178.712, 402.033 184.500 C 405.076 187.800, 408.526 191.849, 409.701 193.498 C 413.063 198.217, 413.341 195.847, 410.004 190.919 C 406.643 185.954, 394.100 172.083, 394.039 173.264 M 20.195 186.500 C 20.215 188.150, 20.439 188.704, 20.693 187.731 C 20.947 186.758, 20.930 185.408, 20.656 184.731 C 20.382 184.054, 20.175 184.850, 20.195 186.500 M 365.819 197.033 C 359.639 200.297, 311.843 204.480, 287.904 203.852 C 275.408 203.524, 274.183 203.314, 269.822 200.750 C 267.249 199.238, 264.056 198, 262.727 198 C 259.792 198, 257 200.861, 257 203.869 C 257 209.172, 264.455 218.729, 270.315 220.939 C 274.246 222.421, 283.389 222.261, 294.261 220.521 C 304.201 218.930, 333.315 215.552, 346.750 214.430 C 352.191 213.976, 355 214.093, 355 214.772 C 355 216.055, 342.280 227.998, 334.615 233.911 L 328.898 238.322 325.492 236.698 C 323.619 235.804, 319.097 234.553, 315.443 233.917 C 309.355 232.856, 308.577 232.925, 306.149 234.730 C 301.994 237.821, 302.253 240.389, 307.183 244.954 L 311.500 248.952 311.305 259.726 C 310.843 285.146, 299.644 306.357, 279.750 319.488 C 274.340 323.058, 273.464 324.350, 273.972 328 C 274.307 330.406, 277.135 333.001, 279.405 332.986 C 282.237 332.967, 294.887 325.974, 302.028 320.479 C 305.224 318.019, 309.924 313.643, 312.473 310.754 C 322.110 299.828, 330.034 278.619, 331.575 259.623 L 332.274 251.018 340.789 246.488 C 351.399 240.844, 358.738 235.604, 371.436 224.606 C 376.901 219.873, 381.879 216, 382.498 216 C 384.518 216, 388 211.976, 388 209.641 C 388 204.850, 376.624 194.912, 371.290 195.044 C 370.305 195.069, 367.844 195.963, 365.819 197.033 M 421.141 219 C 421.141 219.825, 421.527 221.400, 422 222.500 C 422.542 223.761, 422.859 223.945, 422.859 223 C 422.859 222.175, 422.473 220.600, 422 219.500 C 421.458 218.239, 421.141 218.055, 421.141 219 M 42 222.884 C 42 224.944, 51.432 234.230, 58.165 238.799 C 62.825 241.961, 63.443 242.225, 60.505 239.799 C 58.308 237.985, 53.245 233.158, 49.255 229.074 C 45.265 224.990, 42 222.205, 42 222.884 M 198.520 272.968 C 198.191 273.501, 199.122 277.438, 200.590 281.718 C 211.905 314.713, 241.958 344.447, 273.543 353.898 C 293.583 359.895, 325.598 359.190, 340.392 352.426 C 346.161 349.789, 345.774 349.811, 329 353.096 C 312.362 356.355, 296.688 356.667, 284 353.993 C 278.225 352.776, 272.825 351.699, 272 351.600 C 269.435 351.291, 251.433 342.393, 246.342 338.917 C 226.516 325.382, 207.733 299.857, 202.419 279.227 C 200.622 272.251, 199.789 270.914, 198.520 272.968 M 213.086 279.500 C 213.055 280.600, 213.467 282.175, 214 283 C 214.862 284.333, 214.963 284.333, 214.914 283 C 214.884 282.175, 214.473 280.600, 214 279.500 L 213.141 277.500 213.086 279.500 M 238 314.868 C 238 316.768, 245.321 323.045, 252.914 327.655 C 257.043 330.162, 259.794 331.457, 259.028 330.533 C 258.261 329.610, 256.029 328.028, 254.067 327.020 C 252.105 326.011, 247.688 322.631, 244.250 319.509 C 240.813 316.387, 238 314.298, 238 314.868 M 224.214 338.530 C 227.356 341.761, 230.185 344.148, 230.500 343.833 C 230.815 343.518, 228.244 340.874, 224.786 337.957 L 218.500 332.653 224.214 338.530 M 346 429.608 L 337.500 430.913 345 430.410 C 349.125 430.133, 354.075 429.524, 356 429.056 C 361.279 427.772, 356.088 428.059, 346 429.608 M 84 429.997 C 88.624 430.875, 96.660 431.297, 95.917 430.622 C 95.687 430.413, 91.900 429.995, 87.500 429.693 C 81.486 429.279, 80.617 429.354, 84 429.997 M 156.750 431.750 C 189.887 431.896, 244.112 431.896, 277.250 431.750 C 310.387 431.604, 283.275 431.484, 217 431.484 C 150.725 431.484, 123.612 431.604, 156.750 431.750" stroke="none" fill="#fbf9f9" fill-rule="evenodd"/></svg>