<svg xmlns="http://www.w3.org/2000/svg" xmlns:xlink="http://www.w3.org/1999/xlink" width="350" zoomAndPan="magnify" viewBox="0 0 262.5 56.249996" height="75" preserveAspectRatio="xMidYMid meet" version="1.0"><defs><g/></defs><g fill="#000000" fill-opacity="1"><g transform="translate(4.255765, 38.856902)"><g><path d="M 20.203125 -34.796875 L 34.25 0 L 25.734375 0 L 23.15625 -6.953125 L 9.90625 -6.953125 L 7.34375 0 L -1.1875 0 L 12.859375 -34.796875 Z M 20.453125 -13.921875 L 16.578125 -24.046875 L 16.5 -24.046875 L 12.609375 -13.921875 Z M 20.453125 -13.921875 "/></g></g></g><g fill="#000000" fill-opacity="1"><g transform="translate(33.364941, 38.856902)"><g><path d="M 22.4375 -34.796875 L 22.4375 -27.84375 L 10.46875 -27.84375 L 10.46875 -20.921875 L 21.9375 -20.921875 L 21.9375 -13.96875 L 10.46875 -13.96875 L 10.46875 -6.953125 L 22.4375 -6.953125 L 22.4375 0 L 2.53125 0 L 2.53125 -34.796875 Z M 22.4375 -34.796875 "/></g></g></g><g fill="#ff3131" fill-opacity="1"><g transform="translate(53.879269, 38.856902)"><g><path d="M 16.621094 -16.03125 C 16.621094 -13.542969 18.605469 -11.558594 21.09375 -11.558594 C 23.582031 -11.558594 25.566406 -13.542969 25.566406 -16.03125 C 25.566406 -18.519531 23.582031 -20.503906 21.09375 -20.503906 C 18.605469 -20.503906 16.621094 -18.519531 16.621094 -16.03125 Z M 16.621094 -16.03125 "/></g></g></g><g fill="#000000" fill-opacity="1"><g transform="translate(92.111687, 38.856902)"><g><path d="M 10.46875 -21.59375 L 10.46875 0 L 2.53125 0 L 2.53125 -34.796875 L 10.46875 -34.796875 L 24.296875 -13.203125 L 24.390625 -13.203125 L 24.390625 -34.796875 L 32.3125 -34.796875 L 32.3125 0 L 24.390625 0 L 10.546875 -21.59375 Z M 10.46875 -21.59375 "/></g></g></g><g fill="#000000" fill-opacity="1"><g transform="translate(122.992735, 38.856902)"><g><path d="M 3.25 -33.703125 C 4.125 -34.578125 5.164062 -35.015625 6.375 -35.015625 C 7.582031 -35.015625 8.617188 -34.578125 9.484375 -33.703125 C 10.359375 -32.835938 10.796875 -31.796875 10.796875 -30.578125 C 10.796875 -29.367188 10.359375 -28.328125 9.484375 -27.453125 C 8.617188 -26.585938 7.582031 -26.15625 6.375 -26.15625 C 5.164062 -26.15625 4.125 -26.585938 3.25 -27.453125 C 2.375 -28.328125 1.9375 -29.367188 1.9375 -30.578125 C 1.9375 -31.796875 2.375 -32.835938 3.25 -33.703125 Z M 2.53125 -21.640625 L 2.53125 0 L 10 0 L 10 -21.640625 Z M 2.53125 -21.640625 "/></g></g></g><g fill="#000000" fill-opacity="1"><g transform="translate(131.767561, 38.856902)"><g><path d="M 2.53125 0 L 2.53125 -36.28125 L 10 -36.28125 L 10 -19.359375 L 10.078125 -19.359375 C 12.023438 -21.304688 14.09375 -22.28125 16.28125 -22.28125 C 17.351562 -22.28125 18.414062 -22.140625 19.46875 -21.859375 C 20.519531 -21.578125 21.53125 -21.140625 22.5 -20.546875 C 23.476562 -19.953125 24.269531 -19.113281 24.875 -18.03125 C 25.476562 -16.945312 25.78125 -15.691406 25.78125 -14.265625 L 25.78125 0 L 18.3125 0 L 18.3125 -12.234375 C 18.3125 -13.359375 17.953125 -14.34375 17.234375 -15.1875 C 16.515625 -16.03125 15.578125 -16.453125 14.421875 -16.453125 C 13.296875 -16.453125 12.273438 -16.015625 11.359375 -15.140625 C 10.453125 -14.273438 10 -13.304688 10 -12.234375 L 10 0 Z M 2.53125 0 "/></g></g></g><g fill="#000000" fill-opacity="1"><g transform="translate(155.687673, 38.856902)"><g><path d="M 4.578125 -2.578125 C 2.171875 -4.710938 0.96875 -7.453125 0.96875 -10.796875 C 0.96875 -14.140625 2.21875 -16.890625 4.71875 -19.046875 C 7.226562 -21.203125 10.320312 -22.28125 14 -22.28125 C 17.632812 -22.28125 20.695312 -21.195312 23.1875 -19.03125 C 25.675781 -16.863281 26.921875 -14.117188 26.921875 -10.796875 C 26.921875 -7.484375 25.703125 -4.75 23.265625 -2.59375 C 20.828125 -0.445312 17.738281 0.625 14 0.625 C 10.125 0.625 6.984375 -0.441406 4.578125 -2.578125 Z M 10.359375 -14.46875 C 9.390625 -13.507812 8.90625 -12.285156 8.90625 -10.796875 C 8.90625 -9.304688 9.367188 -8.085938 10.296875 -7.140625 C 11.222656 -6.203125 12.445312 -5.734375 13.96875 -5.734375 C 15.425781 -5.734375 16.625 -6.210938 17.5625 -7.171875 C 18.507812 -8.128906 18.984375 -9.335938 18.984375 -10.796875 C 18.984375 -12.285156 18.5 -13.507812 17.53125 -14.46875 C 16.5625 -15.425781 15.375 -15.90625 13.96875 -15.90625 C 12.53125 -15.90625 11.328125 -15.425781 10.359375 -14.46875 Z M 10.359375 -14.46875 "/></g></g></g><g fill="#000000" fill-opacity="1"><g transform="translate(179.607786, 38.856902)"><g><path d="M 2.53125 0 L 2.53125 -21.640625 L 10 -21.640625 L 10 -19.359375 L 10.078125 -19.359375 C 12.023438 -21.304688 14.09375 -22.28125 16.28125 -22.28125 C 17.351562 -22.28125 18.414062 -22.140625 19.46875 -21.859375 C 20.519531 -21.578125 21.53125 -21.140625 22.5 -20.546875 C 23.476562 -19.953125 24.269531 -19.113281 24.875 -18.03125 C 25.476562 -16.945312 25.78125 -15.691406 25.78125 -14.265625 L 25.78125 0 L 18.3125 0 L 18.3125 -12.234375 C 18.3125 -13.359375 17.953125 -14.34375 17.234375 -15.1875 C 16.515625 -16.03125 15.578125 -16.453125 14.421875 -16.453125 C 13.296875 -16.453125 12.273438 -16.015625 11.359375 -15.140625 C 10.453125 -14.273438 10 -13.304688 10 -12.234375 L 10 0 Z M 2.53125 0 "/></g></g></g><g fill="#000000" fill-opacity="1"><g transform="translate(203.527904, 38.856902)"><g><path d="M 1.5625 5.3125 L 7.671875 2.3125 C 8.796875 4.175781 10.753906 5.109375 13.546875 5.109375 C 14.835938 5.109375 16.035156 4.691406 17.140625 3.859375 C 18.253906 3.023438 18.8125 1.753906 18.8125 0.046875 L 18.8125 -1.5625 C 17.488281 -0.101562 15.128906 0.625 11.734375 0.625 C 8.609375 0.625 6.03125 -0.472656 4 -2.671875 C 1.976562 -4.878906 0.96875 -7.585938 0.96875 -10.796875 C 0.96875 -14.003906 1.976562 -16.71875 4 -18.9375 C 6.03125 -21.164062 8.609375 -22.28125 11.734375 -22.28125 C 14.515625 -22.28125 16.832031 -21.421875 18.6875 -19.703125 L 18.8125 -19.703125 L 18.8125 -21.640625 L 26.28125 -21.640625 L 26.28125 0.59375 C 26.28125 4.101562 25.113281 6.8125 22.78125 8.71875 C 20.445312 10.632812 17.367188 11.59375 13.546875 11.59375 C 7.359375 11.59375 3.363281 9.5 1.5625 5.3125 Z M 10.359375 -14.46875 C 9.390625 -13.507812 8.90625 -12.285156 8.90625 -10.796875 C 8.90625 -9.304688 9.367188 -8.085938 10.296875 -7.140625 C 11.222656 -6.203125 12.445312 -5.734375 13.96875 -5.734375 C 15.425781 -5.734375 16.625 -6.210938 17.5625 -7.171875 C 18.507812 -8.128906 18.984375 -9.335938 18.984375 -10.796875 C 18.984375 -12.285156 18.5 -13.507812 17.53125 -14.46875 C 16.5625 -15.425781 15.375 -15.90625 13.96875 -15.90625 C 12.53125 -15.90625 11.328125 -15.425781 10.359375 -14.46875 Z M 10.359375 -14.46875 "/></g></g></g><g fill="#000000" fill-opacity="1"><g transform="translate(228.376157, 38.856902)"><g><path d="M 4.578125 -2.578125 C 2.171875 -4.710938 0.96875 -7.453125 0.96875 -10.796875 C 0.96875 -14.140625 2.21875 -16.890625 4.71875 -19.046875 C 7.226562 -21.203125 10.320312 -22.28125 14 -22.28125 C 17.632812 -22.28125 20.695312 -21.195312 23.1875 -19.03125 C 25.675781 -16.863281 26.921875 -14.117188 26.921875 -10.796875 C 26.921875 -7.484375 25.703125 -4.75 23.265625 -2.59375 C 20.828125 -0.445312 17.738281 0.625 14 0.625 C 10.125 0.625 6.984375 -0.441406 4.578125 -2.578125 Z M 10.359375 -14.46875 C 9.390625 -13.507812 8.90625 -12.285156 8.90625 -10.796875 C 8.90625 -9.304688 9.367188 -8.085938 10.296875 -7.140625 C 11.222656 -6.203125 12.445312 -5.734375 13.96875 -5.734375 C 15.425781 -5.734375 16.625 -6.210938 17.5625 -7.171875 C 18.507812 -8.128906 18.984375 -9.335938 18.984375 -10.796875 C 18.984375 -12.285156 18.5 -13.507812 17.53125 -14.46875 C 16.5625 -15.425781 15.375 -15.90625 13.96875 -15.90625 C 12.53125 -15.90625 11.328125 -15.425781 10.359375 -14.46875 Z M 10.359375 -14.46875 "/></g></g></g></svg>